<svg width="24" height="24" viewBox="0 0 24 24" fill="none" xmlns="http://www.w3.org/2000/svg">
<path d="M22.0781 20.3259C19.9631 19.2947 18.75 17.084 18.75 14.2509V12.6309C18.7508 12.3304 18.661 12.0366 18.4922 11.7879C18.3235 11.5392 18.0837 11.3472 17.8041 11.2369L15.4688 10.3125C15.285 10.239 15.1378 10.0959 15.0591 9.9143C14.9805 9.73272 14.9767 9.52742 15.0488 9.34311L17.0475 4.37436C17.1832 4.04824 17.2516 3.6981 17.2487 3.34491C17.2459 2.99171 17.1718 2.64273 17.0308 2.31886C16.8899 1.99499 16.6851 1.70289 16.4286 1.46005C16.1721 1.21721 15.8692 1.02864 15.5381 0.90561C14.8933 0.669327 14.1817 0.693842 13.5546 0.973945C12.9275 1.25405 12.4344 1.76766 12.18 2.40561C12.1796 2.40935 12.1796 2.41312 12.18 2.41686L10.2094 7.40623C10.1361 7.59082 9.99259 7.7388 9.81033 7.81771C9.62808 7.89663 9.42197 7.90003 9.23721 7.82717L6.85408 6.85686C6.57932 6.74552 6.27758 6.7187 5.98748 6.77982C5.69738 6.84095 5.43212 6.98724 5.22564 7.19998C3.25127 9.22967 2.25002 11.6015 2.25002 14.25C2.24483 16.9602 3.29296 19.5664 5.17314 21.5184C5.24359 21.5921 5.3283 21.6506 5.42211 21.6904C5.51592 21.7302 5.61686 21.7505 5.71877 21.75H21.75C21.9195 21.7498 22.084 21.6922 22.2166 21.5866C22.3492 21.481 22.4421 21.3336 22.4801 21.1684C22.5182 21.0032 22.4992 20.83 22.4262 20.677C22.3532 20.524 22.2305 20.4002 22.0781 20.3259ZM6.29439 8.24998L8.67658 9.21561C8.95156 9.32562 9.24555 9.38026 9.54169 9.37639C9.83783 9.37252 10.1303 9.31023 10.4023 9.19308C10.6743 9.07593 10.9205 8.90623 11.1268 8.69372C11.3331 8.4812 11.4954 8.23005 11.6044 7.95467L13.5731 2.98592C13.8131 2.41311 14.461 2.11686 15.0197 2.32967C15.1622 2.38253 15.2924 2.46369 15.4027 2.56826C15.5129 2.67283 15.6008 2.79865 15.6611 2.93813C15.7213 3.0776 15.7527 3.22784 15.7534 3.37978C15.754 3.53172 15.7238 3.68221 15.6647 3.82217L13.6585 8.78998C13.4388 9.34412 13.448 9.96277 13.6841 10.5101C13.9201 11.0575 14.3638 11.4888 14.9175 11.7094L17.25 12.6309V14.25C17.25 14.2809 17.25 14.3119 17.25 14.3437L5.22846 9.5353C5.54806 9.07846 5.90456 8.64858 6.29439 8.24998ZM10.7944 20.25C9.67775 19.1789 8.8867 17.8139 8.51252 16.3125C8.46037 16.1226 8.33563 15.9608 8.16523 15.8621C7.99483 15.7634 7.79244 15.7357 7.60177 15.7849C7.4111 15.8342 7.24745 15.9564 7.14614 16.1253C7.04484 16.2941 7.01402 16.4961 7.06033 16.6875C7.38745 17.9791 7.97299 19.191 8.78158 20.25H6.04127C4.56207 18.602 3.7458 16.4645 3.75002 14.25C3.74085 13.0767 3.98818 11.9155 4.47471 10.8478L17.3935 16.0153C17.6747 17.7028 18.3835 19.154 19.4456 20.249L10.7944 20.25Z" fill="white"/>
</svg>
